<?xml version="1.0" encoding="UTF-8"?>
<svg version="1.1" xmlns="http://www.w3.org/2000/svg" width="2048" height="314">
<path d="M0 0 C1.78555298 0.54793213 1.78555298 0.54793213 3.60717773 1.10693359 C4.86473877 1.50477051 6.1222998 1.90260742 7.41796875 2.3125 C8.73930197 2.72203807 10.06100438 3.13038674 11.38305664 3.53759766 C13.41980232 4.16519013 15.45622912 4.7936711 17.49137878 5.42642212 C25.59958571 7.94536072 33.75430937 10.30473426 41.91137695 12.66015625 C43.47505005 13.11841797 43.47505005 13.11841797 45.0703125 13.5859375 C45.97386475 13.84810059 46.87741699 14.11026367 47.80834961 14.38037109 C50.60546875 15.3125 50.60546875 15.3125 53.93237305 16.76977539 C57.87831946 18.42709911 61.78810367 19.60473931 65.91015625 20.72265625 C67.4779085 21.15934756 69.04561558 21.59620111 70.61328125 22.03320312 C73.06174804 22.70957107 75.51089205 23.38332748 77.9609375 24.05395508 C80.34177609 24.70759747 82.71978944 25.37079823 85.09765625 26.03515625 C85.83611786 26.23416031 86.57457947 26.43316437 87.3354187 26.63819885 C89.11000876 27.13643829 90.86106602 27.71712488 92.60546875 28.3125 C93.95986543 31.02129335 93.67048326 33.32183268 93.60546875 36.3125 C92.94546875 36.3125 92.28546875 36.3125 91.60546875 36.3125 C91.60546875 36.9725 91.60546875 37.6325 91.60546875 38.3125 C90.70054687 38.65861328 90.70054687 38.65861328 89.77734375 39.01171875 C84.85622897 41.01985107 81.43897747 42.58998546 78.60546875 47.3125 C77.72205 50.14736766 77.48666324 52.67972818 77.5078125 55.640625 C77.51264648 56.83945313 77.51264648 56.83945313 77.51757812 58.0625 C77.52595703 58.8875 77.53433594 59.7125 77.54296875 60.5625 C77.54973633 61.82320312 77.54973633 61.82320312 77.55664062 63.109375 C77.56838914 65.17711401 77.58632353 67.24481624 77.60546875 69.3125 C79.03439453 69.69341797 79.03439453 69.69341797 80.4921875 70.08203125 C82.37357422 70.59830078 82.37357422 70.59830078 84.29296875 71.125 C85.53433594 71.46144531 86.77570313 71.79789062 88.0546875 72.14453125 C91.34238709 73.22596379 93.86330568 74.21136207 96.60546875 76.3125 C97.41796875 78.5 97.41796875 78.5 97.60546875 80.3125 C96.35883544 80.82083591 95.10797488 81.31881145 93.85546875 81.8125 C92.81132813 82.23015625 92.81132813 82.23015625 91.74609375 82.65625 C89.60546875 83.3125 89.60546875 83.3125 85.60546875 83.3125 C86.24484375 84.385 86.88421875 85.4575 87.54296875 86.5625 C91.38934664 93.01448872 90.82293806 99.60996164 90.85546875 106.9375 C90.88640625 108.64486328 90.88640625 108.64486328 90.91796875 110.38671875 C90.95853817 119.22071038 90.49884391 128.19602764 84.04296875 134.875 C83.44355469 135.51566406 82.84414062 136.15632812 82.2265625 136.81640625 C80.60546875 138.3125 80.60546875 138.3125 78.60546875 139.3125 C80.91546875 139.9725 83.22546875 140.6325 85.60546875 141.3125 C86.65603214 143.89115559 86.70380001 145.04560088 85.73046875 147.6875 C83.16502947 150.85657205 80.36273062 152.55659336 76.859375 154.58984375 C73.27161154 157.33196452 70.98305677 160.11940159 70.19946289 164.6706543 C69.99024826 167.3482499 69.89760602 170.00220681 69.85546875 172.6875 C69.81099609 174.07775391 69.81099609 174.07775391 69.765625 175.49609375 C69.69536697 177.76777004 69.64810219 180.04013741 69.60546875 182.3125 C73.89546875 183.3025 78.18546875 184.2925 82.60546875 185.3125 C82.27546875 186.9625 81.94546875 188.6125 81.60546875 190.3125 C54.06567408 197.54298894 54.06567408 197.54298894 40.93481445 200.5378418 C36.25138244 201.62174574 31.63964632 202.86369352 27.0234375 204.20703125 C19.146545 206.48406588 11.20447477 208.41269028 3.23046875 210.3125 C-2.31262118 211.63993781 -7.85440067 212.97276475 -13.39453125 214.3125 C-14.65233398 214.61639648 -15.91013672 214.92029297 -17.20605469 215.23339844 C-24.94316984 217.13356906 -32.62726034 219.1853818 -40.30078125 221.328125 C-41.24563385 221.5912146 -42.19048645 221.8543042 -43.16397095 222.12536621 C-47.0679453 223.21308911 -50.9717026 224.30121354 -54.87109375 225.40527344 C-57.76177688 226.22232998 -60.65585031 227.02626899 -63.55078125 227.828125 C-64.42174438 228.07806213 -65.29270752 228.32799927 -66.19006348 228.58551025 C-75.67835751 231.18855276 -82.35971734 230.38776255 -91.53515625 227.2421875 C-92.49742126 226.92347687 -93.45968628 226.60476624 -94.45111084 226.27639771 C-97.51943497 225.25790995 -100.58207201 224.22347405 -103.64453125 223.1875 C-107.64819651 221.84691789 -111.65397701 220.51273555 -115.66015625 219.1796875 C-116.6519136 218.84860489 -117.64367096 218.51752228 -118.66548157 218.17640686 C-125.74917628 215.82340684 -132.86886446 213.63004921 -140.02659607 211.5146637 C-148.5999247 208.97476133 -157.10692793 206.23945095 -165.60864258 203.47045898 C-168.25015285 202.61096917 -170.89356715 201.75751389 -173.53710938 200.90429688 C-175.24621008 200.34931646 -176.95519885 199.79399116 -178.6640625 199.23828125 C-179.44014359 198.9882283 -180.21622467 198.73817535 -181.01582336 198.48054504 C-193.60780536 194.36146786 -193.60780536 194.36146786 -196.64453125 190.3125 C-200.78038394 181.86126226 -201.90072402 173.04850354 -201.83203125 163.75 C-201.86200195 162.30463867 -201.86200195 162.30463867 -201.89257812 160.83007812 C-201.88661041 151.97995229 -199.30372298 144.6762876 -194.39453125 137.3125 C-196.37453125 136.9825 -198.35453125 136.6525 -200.39453125 136.3125 C-200.72453125 134.9925 -201.05453125 133.6725 -201.39453125 132.3125 C-194.43537213 128.5751738 -187.40857983 125.3125 -179.39453125 125.3125 C-179.48190411 122.2695141 -179.58883751 119.22931634 -179.70703125 116.1875 C-179.72958984 115.3315625 -179.75214844 114.475625 -179.77539062 113.59375 C-179.99111739 108.49475382 -180.48299639 104.67645569 -183.39453125 100.3125 C-185.20056021 98.7233142 -185.20056021 98.7233142 -187.26953125 97.6875 C-187.96820312 97.28015625 -188.666875 96.8728125 -189.38671875 96.453125 C-190.38058594 95.88851562 -190.38058594 95.88851562 -191.39453125 95.3125 C-194.39453125 93.4375 -194.39453125 93.4375 -196.39453125 91.3125 C-196.70703125 87.5625 -196.70703125 87.5625 -196.39453125 84.3125 C-193.09453125 82.9925 -189.79453125 81.6725 -186.39453125 80.3125 C-187.01328125 79.590625 -187.63203125 78.86875 -188.26953125 78.125 C-194.32230307 70.11397847 -193.60331719 60.54037574 -193.64453125 50.9375 C-193.66515625 49.74382812 -193.68578125 48.55015625 -193.70703125 47.3203125 C-193.76980401 33.13366857 -193.76980401 33.13366857 -188.47070312 27.13452148 C-181.67479587 20.89864732 -175.11081129 19.79939202 -166.14453125 19 C-163.68040804 18.7384959 -161.21685345 18.4715764 -158.75390625 18.19921875 C-157.67592773 18.09826904 -156.59794922 17.99731934 -155.48730469 17.89331055 C-151.95514258 17.47029016 -148.53611442 16.69587961 -145.06689453 15.91479492 C-136.53013194 14.04596828 -127.93913058 12.90965562 -119.27734375 11.7890625 C-117.53223762 11.55916179 -115.78719302 11.32879356 -114.04220581 11.09799194 C-109.45850228 10.49315563 -104.87391536 9.89528939 -100.28912354 9.29876709 C-96.66416991 8.82592621 -93.03989348 8.34801938 -89.41563797 7.8698616 C-78.65846046 6.45073837 -67.89870405 5.05223603 -57.13722229 3.66615295 C-54.33479558 3.30479746 -51.53256211 2.94196948 -48.73034668 2.57897949 C-44.10027818 1.97988179 -39.46949128 1.38664386 -34.83813095 0.79761887 C-33.09995186 0.57585608 -31.36198151 0.35245009 -29.62424088 0.12727737 C-27.2199683 -0.18379838 -24.81496228 -0.48844381 -22.40966797 -0.79150391 C-21.71302914 -0.88299839 -21.0163903 -0.97449287 -20.2986412 -1.06875992 C-13.22441432 -1.94589166 -6.86857537 -2.14752399 0 0 Z " fill="#F8F8F8" transform="translate(1737.39453125,46.6875)"/>
<path d="M0 0 C75.92022138 0 75.92022138 0 88.35546875 12.12109375 C98.00393457 23.14463783 99.20038272 35.91067343 99.24023438 50.03808594 C99.24987706 52.09872807 99.28092289 54.15834382 99.3125 56.21875 C99.41354831 68.698216 97.77360562 79.88711491 90 90 C87.79941726 92.20975184 85.47527659 94.11164466 83 96 C82.34 96.66 81.68 97.32 81 98 C81.56847656 98.32871094 82.13695312 98.65742188 82.72265625 98.99609375 C93.43337984 105.59418558 98.42624769 114.01767857 101.53051758 126.05761719 C102.2005493 130.25690077 102.20326431 134.40953267 102.23828125 138.65625 C102.246353 139.59496948 102.25442474 140.53368896 102.26274109 141.50085449 C102.27654943 143.48785577 102.28728607 145.47488043 102.29516602 147.46191406 C102.30664069 149.4730536 102.32702019 151.48416377 102.35668945 153.49511719 C102.60069897 170.05504769 101.92151009 184.516895 89.9296875 197.1875 C67.44175286 218.50010704 25.29635999 210 0 210 C0 140.7 0 71.4 0 0 Z M34 31 C34 48.82 34 66.64 34 85 C49.05847588 85.99803194 49.05847588 85.99803194 61.4375 79.625 C67.89263049 68.78038078 66.96487701 54.67245459 64.68359375 42.63671875 C63.74819346 39.0287462 62.57099552 36.70996825 60 34 C51.35866959 29.75258889 51.35866959 29.75258889 34 31 Z M34 115 C34 136.12 34 157.24 34 179 C51.23722336 180.65097595 51.23722336 180.65097595 65.3125 173.75 C68.54800805 168.47732021 69.25379152 163.17047108 69.265625 157.0703125 C69.26820313 155.77996094 69.27078125 154.48960937 69.2734375 153.16015625 C69.26924805 152.4964502 69.26505859 151.83274414 69.26074219 151.14892578 C69.25006228 149.13673502 69.26065562 147.12544413 69.2734375 145.11328125 C69.39301374 131.07751087 69.39301374 131.07751087 62.56640625 119.37109375 C55.31577344 113.02452987 42.46464324 115 34 115 Z " fill="#FFFFFF" transform="translate(834,52)"/>
<path d="M0 0 C75.65217391 0 75.65217391 0 88 11 C99.02972937 22.41152769 101.30247321 36.43294307 101.29052734 51.71728516 C101.29724457 52.96246918 101.30396179 54.2076532 101.31088257 55.49057007 C101.32655198 58.88357332 101.33323339 62.27633163 101.33451414 65.66935396 C101.3359431 67.79740584 101.34022679 69.92543263 101.34550858 72.05347824 C101.36397592 79.50132608 101.37218375 86.94910268 101.37060547 94.39697266 C101.3694065 101.30034952 101.39046894 108.20341252 101.4220928 115.10671008 C101.44839694 121.06462855 101.45896682 127.02244545 101.45769465 132.98042142 C101.45718894 136.52494904 101.46265155 140.06919763 101.48405075 143.61366653 C101.69977395 182.05850476 101.69977395 182.05850476 88.34375 196.83203125 C65.94672367 217.69718549 23.25918462 208 0 208 C0 139.36 0 70.72 0 0 Z M33 30 C33 78.84 33 127.68 33 178 C53.21114562 179.63978318 53.21114562 179.63978318 63 174 C68.76227044 166.31697274 68.14952477 157.40594345 68.14526367 148.15283203 C68.14862228 147.09483398 68.1519809 146.03683594 68.15544128 144.94677734 C68.16490041 141.46711029 68.16689177 137.9874916 68.16796875 134.5078125 C68.1711845 132.07697531 68.17454881 129.64613831 68.17805481 127.21530151 C68.18403324 122.12643994 68.185896 117.03759531 68.18530273 111.94873047 C68.18520111 105.44359984 68.19885944 98.93857836 68.21607494 92.43347359 C68.22721859 87.41473902 68.22922122 82.39603067 68.22869301 77.377285 C68.22986932 74.9796295 68.23427141 72.58197324 68.24202538 70.18432999 C68.25187427 66.82479549 68.24892798 63.46549569 68.24291992 60.10595703 C68.24853943 59.12589691 68.25415894 58.14583679 68.25994873 57.13607788 C68.22156818 48.64701878 67.93553044 39.57720941 62 33 C52.89909707 28.55562924 52.89909707 28.55562924 33 30 Z " fill="#FFFFFF" transform="translate(1195,53)"/>
<path d="M0 0 C10.74157418 8.18405652 14.95953531 19.76398003 17.21484375 32.6875 C17.59360758 37.095861 17.62641402 41.46786692 17.60302734 45.890625 C17.6082843 47.13960571 17.61354126 48.38858643 17.61895752 49.67541504 C17.62980091 53.05990517 17.6273981 56.44383563 17.61782026 59.82829285 C17.61014196 63.39627752 17.61729166 66.9642408 17.62197876 70.53222656 C17.62741282 76.52022515 17.62030688 82.50811216 17.60595703 88.49609375 C17.589635 95.3859209 17.59492519 102.27548157 17.61143625 109.16530228 C17.62511859 115.11648437 17.62693805 121.06758698 17.61912024 127.01877975 C17.61448054 130.55752672 17.61371526 134.09614909 17.62372971 137.6348877 C17.63413018 141.58481941 17.61965253 145.53446067 17.60302734 149.484375 C17.60910004 150.63280884 17.61517273 151.78124268 17.62142944 152.96447754 C17.5101112 167.34626387 14.26233114 181.15351345 4.2109375 191.875 C-8.20738027 203.15112416 -23.05631715 204.53328672 -39.07421875 204.0703125 C-51.38347483 203.43175729 -63.03069592 199.07559102 -71.59765625 189.9375 C-81.0821673 178.1320733 -83.25150398 164.26634063 -83.17333984 149.484375 C-83.18122528 147.61090393 -83.18122528 147.61090393 -83.18927002 145.69958496 C-83.20011341 142.31509483 -83.1977106 138.93116437 -83.18813276 135.54670715 C-83.18045446 131.97872248 -83.18760416 128.4107592 -83.19229126 124.84277344 C-83.19772532 118.85477485 -83.19061938 112.86688784 -83.17626953 106.87890625 C-83.1599475 99.9890791 -83.16523769 93.09951843 -83.18174875 86.20969772 C-83.19543109 80.25851563 -83.19725055 74.30741302 -83.18943274 68.35622025 C-83.18479304 64.81747328 -83.18402776 61.27885091 -83.19404221 57.7401123 C-83.20444268 53.79018059 -83.18996503 49.84053933 -83.17333984 45.890625 C-83.17941254 44.74219116 -83.18548523 43.59375732 -83.19174194 42.41052246 C-83.0804237 28.02873613 -79.83264364 14.22148655 -69.78125 3.5 C-51.51617454 -13.08511744 -20.11749772 -13.04213791 0 0 Z M-45.09765625 26.5625 C-50.84701895 33.80243822 -49.93439407 43.92216805 -49.93041992 52.70239258 C-49.93377853 53.77829147 -49.93713715 54.85419037 -49.94059753 55.96269226 C-49.9500591 59.50248382 -49.95204821 63.04222784 -49.953125 66.58203125 C-49.95634082 69.0553133 -49.95970514 71.52859517 -49.96321106 74.00187683 C-49.96919027 79.18069906 -49.97105219 84.35950464 -49.97045898 89.53833008 C-49.97035741 96.15546173 -49.9840101 102.77248596 -50.00123119 109.38959217 C-50.01238081 114.4967243 -50.01437728 119.60383069 -50.01384926 124.71097374 C-50.01502489 127.14966896 -50.01942311 129.58836495 -50.02718163 132.02704811 C-50.03704166 135.44624869 -50.03407978 138.86521909 -50.02807617 142.28442383 C-50.03650543 143.77717331 -50.03650543 143.77717331 -50.04510498 145.30007935 C-50.06995745 158.28225139 -50.06995745 158.28225139 -44.78515625 169.6875 C-40.46721528 173.35120749 -35.28612501 173.83361948 -29.78515625 173.6875 C-25.21290807 172.63969313 -21.70179774 170.3603078 -18.78515625 166.6875 C-14.98763532 159.49219718 -15.6363088 150.59037253 -15.63989258 142.67260742 C-15.63653397 141.59670853 -15.63317535 140.52080963 -15.62971497 139.41230774 C-15.6202534 135.87251618 -15.61826429 132.33277216 -15.6171875 128.79296875 C-15.61397168 126.3196867 -15.61060736 123.84640483 -15.60710144 121.37312317 C-15.60112223 116.19430094 -15.59926031 111.01549536 -15.59985352 105.83666992 C-15.59995509 99.21953827 -15.5863024 92.60251404 -15.56908131 85.98540783 C-15.55793169 80.8782757 -15.55593522 75.77116931 -15.55646324 70.66402626 C-15.55528761 68.22533104 -15.55088939 65.78663505 -15.54313087 63.34795189 C-15.53327084 59.92875131 -15.53623272 56.50978091 -15.54223633 53.09057617 C-15.53661682 52.09540985 -15.53099731 51.10024353 -15.52520752 50.07492065 C-15.50035505 37.09274861 -15.50035505 37.09274861 -20.78515625 25.6875 C-28.14493614 19.44283827 -38.04414264 20.84343491 -45.09765625 26.5625 Z " fill="#FFFFFF" transform="translate(568.78515625,59.3125)"/>
<path d="M0 0 C10.89 0 21.78 0 33 0 C33.33 28.05 33.66 56.1 34 85 C42.40464178 67.63040699 50.7525576 50.30820244 58.83984375 32.80078125 C62.09170789 25.77964163 65.40740139 18.79084598 68.75 11.8125 C69.52089966 10.19819092 69.52089966 10.19819092 70.30737305 8.55126953 C70.77828369 7.5714209 71.24919434 6.59157227 71.734375 5.58203125 C72.14913086 4.71811768 72.56388672 3.8542041 72.99121094 2.96411133 C74 1 74 1 75 0 C77.52094076 -0.08847743 80.01430893 -0.11527301 82.53515625 -0.09765625 C83.66503212 -0.09553383 83.66503212 -0.09553383 84.81773376 -0.09336853 C87.2326956 -0.08775376 89.64756601 -0.07519883 92.0625 -0.0625 C93.69596221 -0.0574869 95.32942586 -0.05292366 96.96289062 -0.04882812 C100.97529585 -0.03777954 104.98763241 -0.02050506 109 0 C97.72302005 24.00825895 86.17441795 47.89881783 74.19824219 71.56665039 C72.78388616 74.37059471 71.39165696 77.18473987 70 80 C69.50435547 80.96035156 69.00871094 81.92070312 68.49804688 82.91015625 C68.02947266 83.85761719 67.56089844 84.80507812 67.078125 85.78125 C66.6543457 86.61720703 66.23056641 87.45316406 65.79394531 88.31445312 C63.89548884 94.73604637 66.88356472 100.84478829 69.2890625 106.75390625 C69.62423889 107.59521088 69.95941528 108.4365155 70.30474854 109.30331421 C71.40447551 112.05924398 72.51477038 114.81078653 73.625 117.5625 C74.39681015 119.49194344 75.16779555 121.42171699 75.93798828 123.35180664 C77.51731845 127.30776346 79.10014112 131.26229466 80.68554688 135.21582031 C83.80043123 142.99073986 86.87390796 150.78189426 89.94400024 158.57458496 C91.17171955 161.69058621 92.40097718 164.80597963 93.63020325 167.92138672 C94.51395156 170.16136815 95.39738141 172.40147498 96.28076172 174.64160156 C97.42477052 177.5423277 98.56966252 180.44270282 99.71533203 183.34277344 C101.04649384 186.71240362 102.37609475 190.08264509 103.70440674 193.45339966 C104.41948795 195.26682205 105.13623622 197.07958679 105.85302734 198.89233398 C106.27148926 199.95524658 106.68995117 201.01815918 107.12109375 202.11328125 C107.4864624 203.03923096 107.85183105 203.96518066 108.22827148 204.91918945 C109 207 109 207 109 208 C97.45 208 85.9 208 74 208 C70.95391485 200.68939563 67.94430314 193.40089168 65.109375 186.01171875 C64.76295456 185.11296524 64.41653412 184.21421173 64.05961609 183.28822327 C63.32875512 181.39167493 62.59859531 179.49485625 61.86911011 177.59777832 C59.98498408 172.69805389 58.09574068 167.80030281 56.20703125 162.90234375 C55.84009659 161.95038116 55.47316193 160.99841858 55.09510803 160.01760864 C51.10236545 149.66311463 47.06360646 139.32688594 43 129 C35.43836224 138.85568437 33.10552985 146.66009418 33.1953125 159.07421875 C33.18403609 160.49341568 33.17014409 161.91259397 33.15377808 163.33174133 C33.118036 167.02915353 33.11732825 170.72573398 33.12445068 174.42327881 C33.12553187 178.87982045 33.08215622 183.33613411 33.04641724 187.79250336 C32.99727897 194.52876252 33.00386635 201.26287922 33 208 C22.11 208 11.22 208 0 208 C0 139.36 0 70.72 0 0 Z " fill="#FFFFFF" transform="translate(363,53)"/>
<path d="M0 0 C16.17 0 32.34 0 49 0 C56.57612485 45.48812019 63.91149987 91.01383252 71.16355211 136.55457211 C72.01063989 141.87364779 72.85890144 147.19253543 73.70761108 152.51135254 C74.75574123 159.08046458 75.80198695 165.64987367 76.84587556 172.21966112 C77.38830489 175.63343049 77.93141828 179.04708713 78.4763813 182.46045303 C79.0740326 186.20684886 79.66876287 189.95369667 80.26269531 193.70068359 C80.44023189 194.80965122 80.61776846 195.91861885 80.80068493 197.06119156 C81.0396825 198.57492167 81.0396825 198.57492167 81.2835083 200.11923218 C81.4227837 200.99506643 81.5620591 201.87090069 81.70555496 202.77327538 C82 205 82 205 82 208 C70.78 208 59.56 208 48 208 C44.55092593 189.60493827 44.55092593 189.60493827 43.3125 181 C42.879375 178.03 42.44625 175.06 42 172 C29.13 171.67 16.26 171.34 3 171 C2.34 176.94 1.68 182.88 1 189 C0.4881569 192.55472682 -0.03343592 196.08594551 -0.625 199.625 C-1.07875 202.38875 -1.5325 205.1525 -2 208 C-12.23 208 -22.46 208 -33 208 C-31.85128149 193.06665936 -31.85128149 193.06665936 -30.70959473 186.12312317 C-30.58285574 185.32530117 -30.45611676 184.52747918 -30.3255372 183.70548075 C-29.90756513 181.08253072 -29.48215319 178.46084773 -29.05664062 175.83911133 C-28.75225621 173.93905636 -28.44832919 172.03892807 -28.14482117 170.13873291 C-27.32532461 165.01684044 -26.49924537 159.89603026 -25.67173576 154.7754271 C-24.80527642 149.40777613 -23.94434698 144.03923795 -23.0826416 138.67082214 C-21.63704809 129.67017322 -20.18727469 120.6702054 -18.73486328 111.6706543 C-17.05452738 101.25856289 -15.38030884 90.84550211 -13.70943499 80.4318884 C-12.10061948 70.40564712 -10.48805673 60.3800123 -8.87358093 50.35468102 C-8.18666341 46.08894413 -7.50097226 41.82301276 -6.8162384 37.55692482 C-6.01164613 32.54541177 -5.2037535 27.53444179 -4.39325905 22.52388 C-4.09581509 20.6817418 -3.79950417 18.83942026 -3.50438499 16.99690819 C-3.10277855 14.49078628 -2.69713503 11.98535148 -2.29040527 9.48005676 C-2.11486862 8.37566709 -2.11486862 8.37566709 -1.93578577 7.24896652 C-1.11416884 2.22833768 -1.11416884 2.22833768 0 0 Z M22 41 C20.1685931 53.13428002 18.34272167 65.26937885 16.52388 77.40554905 C15.67911443 83.04104219 14.83245671 88.67623739 13.98144531 94.31079102 C13.15999258 99.7501109 12.34354875 105.19016128 11.5305481 110.63075066 C11.21975361 112.70459637 10.90716609 114.7781742 10.59274292 116.85147285 C10.15210715 119.75909483 9.71790013 122.6676105 9.28515625 125.57641602 C9.08879074 126.85711975 9.08879074 126.85711975 8.88845825 128.16369629 C8.71176102 129.36452599 8.71176102 129.36452599 8.53149414 130.58961487 C8.42825333 131.27635064 8.32501251 131.96308641 8.21864319 132.67063236 C7.92794433 135.76766235 8 138.88935688 8 142 C17.9 142 27.8 142 38 142 C33.26066442 108.2914757 28.24841821 74.63300736 23 41 C22.67 41 22.34 41 22 41 Z " fill="#FFFFFF" transform="translate(1093,53)"/>
<path d="M0 0 C1.57491211 0.01135986 1.57491211 0.01135986 3.18164062 0.02294922 C14.6678709 0.26654265 24.549666 2.28181001 33.125 10.4375 C33.81335938 11.08589844 34.50171875 11.73429687 35.2109375 12.40234375 C45.67431255 23.15744858 48.29781339 36.58925866 48.25 51.0625 C48.20875 53.82625 48.1675 56.59 48.125 59.4375 C37.565 59.4375 27.005 59.4375 16.125 59.4375 C16.021875 56.9625 15.91875 54.4875 15.8125 51.9375 C15.35625556 43.32038401 15.35625556 43.32038401 12.125 35.4375 C8.48639249 32.57918078 5.06097768 31.55046282 0.5 31 C-4.83978749 31.69219467 -7.79221432 33.09133401 -11.1875 37.3125 C-12.82207787 40.33949606 -13.56751571 42.05517276 -13.875 45.4375 C-13.93816406 46.12328125 -14.00132812 46.8090625 -14.06640625 47.515625 C-14.79494977 62.08649541 -7.91541742 72.73443109 1.25 83.3125 C4.7901347 87.15864634 8.51928914 90.72792336 12.375 94.25 C28.95511354 109.41230189 46.62053441 126.31773691 48.33032227 150.31982422 C48.42961632 153.61151109 48.44698477 156.89438642 48.4375 160.1875 C48.45361328 161.2909375 48.46972656 162.394375 48.48632812 163.53125 C48.49400055 176.60507072 45.33350713 187.91410082 37.875 198.6875 C26.08733171 210.47516829 12.63738138 212.72593601 -3.30249023 212.7565918 C-11.23384716 212.66782291 -17.74028457 212.15046415 -24.875 208.4375 C-25.61234375 208.06367188 -26.3496875 207.68984375 -27.109375 207.3046875 C-37.65104639 201.32050562 -43.81990926 191.89167245 -47.51269531 180.46411133 C-49.2866276 173.65856247 -49.09974423 166.86195123 -49 159.875 C-48.95875 155.770625 -48.9175 151.66625 -48.875 147.4375 C-38.315 147.4375 -27.755 147.4375 -16.875 147.4375 C-16.5625 158.5625 -16.5625 158.5625 -16.48706055 162.03564453 C-16.24254473 168.82140478 -15.46852492 173.52960843 -10.8125 178.75 C-6.15693219 181.42447513 -1.04596785 182.21105082 4.22265625 180.92578125 C7.37319554 179.66155211 10.15988766 178.23002807 12.125 175.4375 C15.42651474 166.9391565 15.22183351 157.48202431 12.21484375 148.890625 C6.44660454 135.90691811 -3.85751993 126.02069683 -14.24169922 116.65454102 C-31.84557584 100.75875768 -46.2101347 84.00502014 -48.875 59.4375 C-49.1262092 42.11539811 -47.21507302 24.44268066 -34.87890625 11.25390625 C-24.95327955 2.25699316 -13.0522596 -0.1323716 0 0 Z " fill="#FFFFFF" transform="translate(288.875,50.5625)"/>
<path d="M0 0 C29.7 0 59.4 0 90 0 C90 9.9 90 19.8 90 30 C71.19 30 52.38 30 33 30 C33 48.81 33 67.62 33 87 C47.85 87 62.7 87 78 87 C78 96.9 78 106.8 78 117 C63.15 117 48.3 117 33 117 C33 137.13 33 157.26 33 178 C51.81 178 70.62 178 90 178 C90 187.9 90 197.8 90 208 C60.3 208 30.6 208 0 208 C0 139.36 0 70.72 0 0 Z " fill="#FFFFFF" transform="translate(1323,53)"/>
<path d="M0 0 C29.7 0 59.4 0 90 0 C90 9.9 90 19.8 90 30 C71.19 30 52.38 30 33 30 C33 48.81 33 67.62 33 87 C47.85 87 62.7 87 78 87 C78 96.9 78 106.8 78 117 C63.15 117 48.3 117 33 117 C33 137.13 33 157.26 33 178 C51.81 178 70.62 178 90 178 C90 187.9 90 197.8 90 208 C60.3 208 30.6 208 0 208 C0 139.36 0 70.72 0 0 Z " fill="#FFFFFF" transform="translate(720,53)"/>
<path d="M0 0 C33.66 0 67.32 0 102 0 C102 9.9 102 19.8 102 30 C90.45 30 78.9 30 67 30 C67 88.74 67 147.48 67 208 C56.11 208 45.22 208 34 208 C34 149.26 34 90.52 34 30 C22.78 30 11.56 30 0 30 C0 20.1 0 10.2 0 0 Z " fill="#FFFFFF" transform="translate(1428,53)"/>
<path d="M0 0 C10.89 0 21.78 0 33 0 C33 58.74 33 117.48 33 178 C50.82 178 68.64 178 87 178 C87 187.9 87 197.8 87 208 C58.29 208 29.58 208 0 208 C0 139.36 0 70.72 0 0 Z " fill="#FFFFFF" transform="translate(962,53)"/>
<path d="M0 0 C10.89 0 21.78 0 33 0 C33 58.74 33 117.48 33 178 C50.82 178 68.64 178 87 178 C87 187.9 87 197.8 87 208 C58.29 208 29.58 208 0 208 C0 139.36 0 70.72 0 0 Z " fill="#FFFFFF" transform="translate(613,53)"/>
<path d="M0 0 C2.83208482 0.68249357 5.48426826 1.67181745 8.1875 2.75 C13.22747669 4.70031675 18.25407341 6.38588184 23.46484375 7.83203125 C31.88879277 10.19306301 40.11776068 13.05483236 48.375 15.9375 C58.42164997 19.43757362 68.4798953 22.83980906 78.6496582 25.96679688 C86.53341458 28.39804784 94.23894797 31.17779926 102 34 C102 45.88 102 57.76 102 70 C93.88274071 68.12678632 85.80377419 66.23552783 77.75 64.125 C76.75548828 63.86525391 75.76097656 63.60550781 74.73632812 63.33789062 C68.28380291 61.63854561 61.87954316 59.81881249 55.4909668 57.89501953 C49.55041618 56.12279403 43.56444207 54.55004667 37.5625 53 C28.39294954 50.63013756 19.23947685 48.22335762 10.13623047 45.60888672 C8.67369849 45.19202332 7.20904738 44.78254363 5.74267578 44.37939453 C3.53149568 43.77011905 1.32808402 43.13784768 -0.875 42.5 C-1.53556396 42.32267334 -2.19612793 42.14534668 -2.87670898 41.96264648 C-7.37318647 40.62152985 -9.42615299 38.87872758 -12 35 C-12.66 34.01 -13.32 33.02 -14 32 C-15.29882272 27.45412048 -15.21918285 22.8169112 -15.25 18.125 C-15.270625 17.34769531 -15.29125 16.57039063 -15.3125 15.76953125 C-15.34843692 10.42391418 -14.57974084 6.71345173 -12 2 C-7.91806372 -0.72129085 -4.79017914 -0.47794933 0 0 Z " fill="#050505" transform="translate(1568,81)"/>
<path d="M0 0 C2.45111674 0.82652775 4.86992657 1.71140074 7.28710938 2.63232422 C12.83321181 4.70533808 18.36258076 6.59132944 24.06835938 8.18310547 C32.57279097 10.56496842 40.91981154 13.3743668 49.28710938 16.19482422 C50.8052417 16.70422751 52.32347066 17.21334289 53.84179688 17.72216797 C56.11866321 18.48521169 58.39522737 19.24908805 60.67077637 20.01605225 C64.53014359 21.31632713 68.39321101 22.60283044 72.265625 23.86376953 C73.43765472 24.24772385 73.43765472 24.24772385 74.63336182 24.63943481 C76.09118317 25.11642329 77.55016896 25.58987863 79.01068115 26.05856323 C85.38376355 28.15070812 91.27632123 30.71116249 97.53710938 33.31982422 C97.53710938 44.86982422 97.53710938 56.41982422 97.53710938 68.31982422 C87.43184622 67.1970172 87.43184622 67.1970172 82.47460938 65.69482422 C81.270625 65.33775391 80.06664062 64.98068359 78.82617188 64.61279297 C77.81538574 64.30801025 77.81538574 64.30801025 76.78417969 63.99707031 C72.3113503 62.64900113 67.83132865 61.32549835 63.34960938 60.00732422 C61.83197998 59.56078491 61.83197998 59.56078491 60.28369141 59.10522461 C51.25891729 56.47690066 42.1768615 54.09876496 33.06176758 51.80493164 C26.53950261 50.1515472 20.12360645 48.28631863 13.70385742 46.27270508 C10.69465673 45.36723054 7.68304952 44.57367057 4.63085938 43.82763672 C3.70273438 43.59689453 2.77460937 43.36615234 1.81835938 43.12841797 C-0.0635229 42.66587668 -1.9491511 42.21835952 -3.83789062 41.78466797 C-10.02203739 40.21257448 -12.98590051 38.74004235 -16.46289062 33.31982422 C-21.03073012 25.22866825 -20.63016434 14.28456044 -18.56835938 5.51513672 C-15.40242626 -3.63586431 -7.87640916 -2.17522561 0 0 Z " fill="#040404" transform="translate(1564.462890625,194.68017578125)"/>
<path d="M0 0 C2.78838601 2.12159805 4.60304626 3.65391968 5.609375 7.06640625 C6.91083337 16.84035863 8.15486105 28.83500599 2.6796875 37.44140625 C-2.3485012 42.10709762 -9.16913779 43.22873339 -15.625 44.8125 C-23.288072 46.74639445 -30.88332089 48.8013203 -38.4375 51.125 C-44.94837011 53.12067879 -51.46537152 54.92942253 -58.08178711 56.53833008 C-62.91143775 57.71607325 -67.71031765 58.9814411 -72.5 60.3125 C-73.22477539 60.51391602 -73.94955078 60.71533203 -74.69628906 60.92285156 C-79.25459753 62.20152053 -83.7975145 63.52746465 -88.3359375 64.875 C-89.41939453 65.19557373 -90.50285156 65.51614746 -91.61914062 65.84643555 C-93.75736187 66.48087927 -95.89413922 67.12021379 -98.02929688 67.76489258 C-99.49592773 68.20031372 -99.49592773 68.20031372 -100.9921875 68.64453125 C-101.86214355 68.90596924 -102.73209961 69.16740723 -103.62841797 69.43676758 C-106 70 -106 70 -110 70 C-110 58.12 -110 46.24 -110 34 C-90.18652344 27.39550781 -70.37304688 20.79101562 -50.55957031 14.18652344 C-49.86369308 13.95456268 -49.16781586 13.72260193 -48.45085144 13.48361206 C-47.0717153 13.02390338 -45.69257514 12.56420675 -44.31343079 12.10452271 C-40.60851495 10.86961476 -36.90369013 9.63443455 -33.19897461 8.39892578 C-32.39690582 8.13147552 -31.59483704 7.86402527 -30.76846313 7.58847046 C-29.23659688 7.07766458 -27.70475507 6.56678537 -26.17294312 6.05581665 C-24.11553647 5.36981762 -22.05786479 4.68462336 -20 4 C-19.33633926 3.77907181 -18.67267853 3.55814362 -17.98890686 3.33052063 C-5.08233098 -0.95293706 -5.08233098 -0.95293706 0 0 Z " fill="#030303" transform="translate(1811,136)"/>
<path d="M0 0 C-0.32742188 0.90878906 -0.65484375 1.81757812 -0.9921875 2.75390625 C-2.51264605 8.07551117 -2.21356993 13.44957079 -2.125 18.9375 C-2.11597656 20.00291016 -2.10695313 21.06832031 -2.09765625 22.16601562 C-2.07423414 24.77758034 -2.04143452 27.38866937 -2 30 C-7.89504246 32.04119895 -13.79953559 33.8150408 -19.84765625 35.33984375 C-20.6626207 35.54807266 -21.47758514 35.75630157 -22.31724548 35.97084045 C-24.89822435 36.62947183 -27.48033588 37.28353281 -30.0625 37.9375 C-31.76504881 38.37145122 -33.46752332 38.80569408 -35.16992188 39.24023438 C-40.11159361 40.50019368 -45.0554843 41.75125522 -50 43 C-50.73305359 43.18556458 -51.46610718 43.37112915 -52.22137451 43.56231689 C-61.12419218 45.81444427 -70.04459372 47.9653715 -79 50 C-88.69769001 52.22201117 -98.35937951 54.54173489 -108 57 C-112.26964406 58.08807742 -116.54074671 59.17023599 -120.8125 60.25 C-121.87033691 60.52070313 -122.92817383 60.79140625 -124.01806641 61.0703125 C-125.0085498 61.32039063 -125.9990332 61.57046875 -127.01953125 61.828125 C-127.90745361 62.0540332 -128.79537598 62.27994141 -129.71020508 62.51269531 C-132 63 -132 63 -135 63 C-135 51.45 -135 39.9 -135 28 C-127.12621961 25.75034846 -127.12621961 25.75034846 -123.99023438 25.11791992 C-123.28323898 24.97383698 -122.57624359 24.82975403 -121.8478241 24.68130493 C-121.10397964 24.53252899 -120.36013519 24.38375305 -119.59375 24.23046875 C-118.80112259 24.06944672 -118.00849518 23.90842468 -117.19184875 23.74252319 C-115.50301586 23.39957834 -113.81394794 23.05778917 -112.12466431 22.71707153 C-107.67950381 21.82018333 -103.23620892 20.91415904 -98.79296875 20.0078125 C-97.92298752 19.83047073 -97.05300629 19.65312897 -96.15666199 19.47041321 C-90.03037893 18.21855746 -83.91681114 16.91767037 -77.8125 15.5625 C-66.2982786 13.01431692 -54.74157726 10.67170213 -43.1875 8.3125 C-42.21503326 8.11391388 -41.24256653 7.91532776 -40.2406311 7.71072388 C-22.95003183 4.18185489 -22.95003183 4.18185489 -14.32539368 2.47746277 C-11.17349738 1.83029788 -8.04165003 1.10601543 -4.91015625 0.3671875 C-3 0 -3 0 0 0 Z " fill="#050505" transform="translate(1810,88)"/>
<path d="M0 0 C1.13953125 0.24234375 2.2790625 0.4846875 3.453125 0.734375 C5.05207092 1.07297531 6.65103 1.41151346 8.25 1.75 C8.98863281 1.90726563 9.72726562 2.06453125 10.48828125 2.2265625 C16.42882679 3.48228757 22.38072185 4.67575731 28.3359375 5.859375 C35.42828731 7.27096444 42.51075008 8.7235212 49.5859375 10.21875 C50.46540039 10.40458649 51.34486328 10.59042297 52.25097656 10.78189087 C54.0447825 11.161185 55.83856492 11.54059036 57.63232422 11.92010498 C70.92265036 14.73013232 84.200148 17.49818401 97.58496094 19.82421875 C102.48716094 20.68658686 107.22195267 21.78344058 111.99609375 23.20703125 C119.56000009 25.20374515 127.32905268 26.50699683 135 28 C135 39.88 135 51.76 135 64 C130.02347747 62.79200594 125.04704145 61.58366506 120.07080078 60.37451172 C118.38562591 59.96514065 116.70040614 59.55595433 115.01513672 59.14697266 C106.57610184 57.09885865 98.13993799 55.04230128 89.71875 52.921875 C82.16675838 51.02296924 74.58790217 49.24921113 67 47.5 C58.01104372 45.42780903 49.04595071 43.28411008 40.10107422 41.03076172 C36.60693022 40.15054951 33.10963981 39.28366062 29.61099243 38.42153931 C26.79875398 37.72844328 23.98737661 37.03188987 21.17602539 36.33520508 C19.74044863 35.9801664 18.30456455 35.62636853 16.8684082 35.27368164 C14.75650285 34.75472399 12.64573889 34.23133851 10.53515625 33.70703125 C8.68482788 33.25034058 8.68482788 33.25034058 6.79711914 32.78442383 C4 32 4 32 3 31 C2.86614632 29.13320242 2.79645745 27.26173146 2.75390625 25.390625 C2.72103516 24.24335938 2.68816406 23.09609375 2.65429688 21.9140625 C2.59349256 19.48706463 2.536155 17.05997722 2.48242188 14.6328125 C2.44826172 13.48039063 2.41410156 12.32796875 2.37890625 11.140625 C2.3538501 10.08391602 2.32879395 9.02720703 2.30297852 7.93847656 C1.99490507 4.95058614 1.25263677 2.71514266 0 0 Z " fill="#040404" transform="translate(1560,143)"/>
<path d="M0 0 C-0.32742188 1.25683594 -0.65484375 2.51367188 -0.9921875 3.80859375 C-2.20361618 9.26002281 -2.22562382 14.50109889 -2.125 20.0625 C-2.11597656 21.02349609 -2.10695313 21.98449219 -2.09765625 22.97460938 C-2.07435208 25.31667805 -2.04164058 27.65819792 -2 30 C-14.26503271 33.48056638 -26.57644079 36.72332028 -38.94824219 39.80224609 C-41.7346137 40.49616817 -44.51969513 41.19509723 -47.3046875 41.89453125 C-57.68079694 44.4900398 -68.0745808 46.97316797 -78.51849365 49.28234863 C-84.06666266 50.51849306 -89.53844746 51.92561239 -95 53.5 C-104.36793068 56.18034791 -113.84052127 58.31407471 -123.35791016 60.39331055 C-126.91749912 61.21068059 -130.45681866 62.11420467 -134 63 C-134 51.12 -134 39.24 -134 27 C-120.19565641 23.81006218 -106.38425431 20.79970717 -92.48370361 18.06295776 C-87.5503458 17.09144324 -82.61906322 16.1094822 -77.6875 15.12890625 C-76.7348526 14.93974136 -75.7822052 14.75057648 -74.8006897 14.55567932 C-68.06813945 13.21738521 -61.34243328 11.84990562 -54.625 10.4375 C-53.7695459 10.25807861 -52.9140918 10.07865723 -52.03271484 9.89379883 C-50.17511325 9.50414983 -48.31752967 9.11441497 -46.45996094 8.72460938 C-39.29042375 7.22311443 -32.1192932 5.72949727 -24.94598389 4.24612427 C-23.1608875 3.87624143 -21.37609199 3.50490329 -19.59161377 3.13204956 C-17.08786791 2.60907508 -14.58313506 2.09109886 -12.078125 1.57421875 C-11.32197906 1.41512024 -10.56583313 1.25602173 -9.78677368 1.09210205 C-6.42178717 0.40272963 -3.45371589 0 0 0 Z " fill="#040404" transform="translate(1802,201)"/>
<path d="M0 0 C1.32 0 2.64 0 4 0 C3.67 1.65 3.34 3.3 3 5 C-24.53979467 12.23048894 -24.53979467 12.23048894 -37.6706543 15.2253418 C-42.35408631 16.30924574 -46.96582243 17.55119352 -51.58203125 18.89453125 C-59.45892375 21.17156588 -67.40099398 23.10019028 -75.375 25 C-80.91808993 26.32743781 -86.45986942 27.66026475 -92 29 C-93.25780273 29.30389648 -94.51560547 29.60779297 -95.81152344 29.92089844 C-103.54863859 31.82106906 -111.23272909 33.8728818 -118.90625 36.015625 C-119.8511026 36.2787146 -120.7959552 36.5418042 -121.7694397 36.81286621 C-125.67341405 37.90058911 -129.57717135 38.98871354 -133.4765625 40.09277344 C-136.36724563 40.90982998 -139.26131906 41.71376899 -142.15625 42.515625 C-143.4626947 42.8905307 -143.4626947 42.8905307 -144.79553223 43.27301025 C-153.48323807 45.65641738 -160.15251284 45.36643504 -168.65625 42.375 C-169.44398804 42.10864746 -170.23172607 41.84229492 -171.04333496 41.56787109 C-173.53291258 40.72320844 -176.01636034 39.86194637 -178.5 39 C-180.1975379 38.42076378 -181.89545163 37.84262776 -183.59375 37.265625 C-187.73361981 35.85643057 -191.86808096 34.43233088 -196 33 C-196 32.67 -196 32.34 -196 32 C-189.53391943 32.66482237 -183.56652718 34.50854071 -177.375 36.4375 C-176.35148437 36.75009766 -175.32796875 37.06269531 -174.2734375 37.38476562 C-166.43740789 39.79781381 -166.43740789 39.79781381 -163.60791016 41.10571289 C-158.14432304 42.97924964 -152.94404118 41.9565791 -147.46484375 40.609375 C-145.63083008 40.16271484 -145.63083008 40.16271484 -143.75976562 39.70703125 C-141.86774414 39.23330078 -141.86774414 39.23330078 -139.9375 38.75 C-138.70322266 38.44964844 -137.46894531 38.14929688 -136.19726562 37.83984375 C-128.81945603 36.02531183 -121.51192041 34.02878324 -114.21459961 31.91552734 C-109.77161724 30.65015301 -105.29993899 29.53251899 -100.8125 28.4375 C-90.20288155 25.81651578 -79.61453608 23.11714698 -69.02905273 20.40063477 C-49.81460555 15.47000135 -30.58439341 10.60617655 -11.33056641 5.83154297 C-8.61590862 5.15377399 -5.90738694 4.45688802 -3.19921875 3.75390625 C0 3 0 3 3 3 C3 2.34 3 1.68 3 1 C2.01 0.67 1.02 0.34 0 0 Z " fill="#242424" transform="translate(1816,232)"/>
<path d="M0 0 C0.66 0 1.32 0 2 0 C2.33 1.32 2.66 2.64 3 4 C1.75336669 4.50833591 0.50250613 5.00631145 -0.75 5.5 C-1.44609375 5.7784375 -2.1421875 6.056875 -2.859375 6.34375 C-5 7 -5 7 -9 7 C-8.360625 8.0725 -7.72125 9.145 -7.0625 10.25 C-3.21612211 16.70198872 -3.78253069 23.29746164 -3.75 30.625 C-3.729375 31.76324219 -3.70875 32.90148437 -3.6875 34.07421875 C-3.64067472 44.27042425 -4.83730689 52.88077783 -12.015625 60.50390625 C-15.28723304 62.97049262 -17.96349905 63 -22 63 C-22 62.34 -22 61.68 -22 61 C-20.1746875 60.505 -20.1746875 60.505 -18.3125 60 C-14.04837638 58.36516815 -12.17090065 56.39640932 -10.03125 52.40625 C-5.30992375 41.38982209 -3.66876649 27.21643439 -7.375 15.625 C-8.87854851 12.00254539 -8.87854851 12.00254539 -11 9 C-11 8.01 -11 7.02 -11 6 C-7.37 5.01 -3.74 4.02 0 3 C0 2.01 0 1.02 0 0 Z " fill="#171717" transform="translate(1832,123)"/>
<path d="M0 0 C6.46608057 0.66482237 12.43347282 2.50854071 18.625 4.4375 C19.64851563 4.75009766 20.67203125 5.06269531 21.7265625 5.38476562 C29.35963905 7.73531589 29.35963905 7.73531589 32.63256836 9.08813477 C39.21144569 11.62212536 46.04483913 9.19706863 52.5625 7.5 C63.59245169 4.64009662 63.59245169 4.64009662 69 5 C64.74663208 7.83557861 60.21310267 8.78876261 55.3125 10.125 C54.34376953 10.40214844 53.37503906 10.67929687 52.37695312 10.96484375 C50.94706055 11.35736328 50.94706055 11.35736328 49.48828125 11.7578125 C48.62759033 11.9964502 47.76689941 12.23508789 46.88012695 12.48095703 C39.64670139 13.78453105 34.14470837 12.76743345 27.34375 10.375 C26.55601196 10.10864746 25.76827393 9.84229492 24.95666504 9.56787109 C22.46708742 8.72320844 19.98363966 7.86194637 17.5 7 C15.8024621 6.42076378 14.10454837 5.84262776 12.40625 5.265625 C8.26638019 3.85643057 4.13191904 2.43233088 0 1 C0 0.67 0 0.34 0 0 Z " fill="#181818" transform="translate(1620,264)"/>
<path d="M0 0 C-7.38475418 2.84361164 -14.74463213 5.09813637 -22.4375 6.9375 C-24.53915627 7.44883351 -26.6407172 7.960559 -28.7421875 8.47265625 C-29.78600586 8.72547363 -30.82982422 8.97829102 -31.90527344 9.23876953 C-34.86318947 9.9663478 -37.81124292 10.72398433 -40.7578125 11.49609375 C-41.65443604 11.7288501 -42.55105957 11.96160645 -43.47485352 12.20141602 C-45.14882873 12.63716445 -46.82131829 13.07867839 -48.49194336 13.52709961 C-53.13969275 14.72305514 -57.1999562 15.21673505 -62 15 C-62 14.67 -62 14.34 -62 14 C-60.77595459 13.68772461 -59.55190918 13.37544922 -58.29077148 13.05371094 C-53.67777134 11.87662441 -49.06504447 10.69846993 -44.45239258 9.52001953 C-42.46939215 9.01355072 -40.48632119 8.507358 -38.50317383 8.00146484 C-36.5766072 7.50996894 -34.6501436 7.01806902 -32.7237854 6.52575684 C-30.82689162 6.04108776 -28.92973666 5.55743972 -27.03231812 5.0748291 C-22.80602838 3.9956421 -18.58908382 2.89789159 -14.39111328 1.71289062 C-13.70034195 1.51979309 -13.00957062 1.32669556 -12.29786682 1.12774658 C-10.49060415 0.61841155 -8.6866705 0.09730409 -6.88305664 -0.42480469 C-4.08817292 -0.98240872 -2.63361762 -0.98334558 0 0 Z " fill="#202020" transform="translate(1748,254)"/>
<path d="M0 0 C0.99 0 1.98 0 3 0 C4.05056339 2.57865559 4.09833126 3.73310088 3.125 6.375 C0.55956072 9.54407205 -2.24273813 11.24409336 -5.74609375 13.27734375 C-9.33385721 16.01946452 -11.62241198 18.80690159 -12.40600586 23.3581543 C-12.61522049 26.0357499 -12.70786273 28.68970681 -12.75 31.375 C-12.77964844 32.30183594 -12.80929687 33.22867188 -12.83984375 34.18359375 C-12.91011861 36.45581435 -12.96302048 38.72703459 -13 41 C-12.34 41.33 -11.68 41.66 -11 42 C-12.32 41.67 -13.64 41.34 -15 41 C-15.11681812 37.45861382 -15.187455 33.9177276 -15.25 30.375 C-15.28351563 29.37597656 -15.31703125 28.37695312 -15.3515625 27.34765625 C-15.43309256 21.19213655 -15.11428283 17.67943158 -11 13 C-8.34760937 10.55700863 -6.10660384 9.04807624 -2.8125 7.5625 C0.19558062 6.23303357 0.19558062 6.23303357 1.375 3.3125 C1.684375 2.1678125 1.684375 2.1678125 2 1 C1.34 0.67 0.68 0.34 0 0 Z " fill="#121212" transform="translate(1820,188)"/>
<path d="M0 0 C-0.99 1.485 -0.99 1.485 -2 3 C-4.97 2.505 -4.97 2.505 -8 2 C-7.34 3.65 -6.68 5.3 -6 7 C-7.32 8.32 -8.64 9.64 -10 11 C-11.98 10.34 -13.96 9.68 -16 9 C-15.979375 8.21625 -15.95875 7.4325 -15.9375 6.625 C-15.81315937 4.01885039 -15.81315937 4.01885039 -17 2 C-14.91952703 1.4678559 -12.83547707 0.94968214 -10.75 0.4375 C-9.58984375 0.14746094 -8.4296875 -0.14257812 -7.234375 -0.44140625 C-4.27909017 -0.95179964 -2.75565899 -1.02996165 0 0 Z " fill="#EFEFEF" transform="translate(1744,136)"/>
<path d="M0 0 C0.33 0 0.66 0 1 0 C1 1.98 1 3.96 1 6 C0.34 6 -0.32 6 -1 6 C-1 6.66 -1 7.32 -1 8 C-1.60328125 8.23074219 -2.2065625 8.46148437 -2.828125 8.69921875 C-7.74923978 10.70735107 -11.16649128 12.27748546 -14 17 C-14.91214352 19.90582324 -15.11817422 22.51021604 -15.09765625 25.546875 C-15.09443359 26.39121094 -15.09121094 27.23554687 -15.08789062 28.10546875 C-15.07951172 28.97816406 -15.07113281 29.85085937 -15.0625 30.75 C-15.05573242 32.08224609 -15.05573242 32.08224609 -15.04882812 33.44140625 C-15.037074 35.62767329 -15.02064249 37.81380179 -15 40 C-15.66 40 -16.32 40 -17 40 C-19.16219272 33.09493293 -19.10444786 23.38487595 -17 16.4375 C-14.39973634 11.96829683 -11.3141885 9.72689273 -7 7 C-2.49103723 4.4050324 -2.49103723 4.4050324 0 0 Z " fill="#202020" transform="translate(1830,77)"/>
<path d="M0 0 C0.33 0 0.66 0 1 0 C1 1.65 1 3.3 1 5 C3.97 5.495 3.97 5.495 7 6 C5.29042423 8.95126765 4.42407102 9.87964785 1.08203125 10.828125 C-0.53638672 11.03695312 -0.53638672 11.03695312 -2.1875 11.25 C-3.27417969 11.39953125 -4.36085938 11.5490625 -5.48046875 11.703125 C-6.31191406 11.80109375 -7.14335938 11.8990625 -8 12 C-8 10.68 -8 9.36 -8 8 C-7.01 7.67 -6.02 7.34 -5 7 C-5.66 5.35 -6.32 3.7 -7 2 C-3.125 3.875 -3.125 3.875 -2 5 C-1.34 3.35 -0.68 1.7 0 0 Z " fill="#F0F0F0" transform="translate(1784,83)"/>
<path d="M0 0 C2.12508244 3.18762365 2.5020163 5.26512223 3 9 C3.99 8.34 4.98 7.68 6 7 C6.99 7 7.98 7 9 7 C9.33 5.35 9.66 3.7 10 2 C10.33 2 10.66 2 11 2 C11 7.61 11 13.22 11 19 C10.67 19 10.34 19 10 19 C9.67 16.03 9.34 13.06 9 10 C8.01 10 7.02 10 6 10 C6.495 10.598125 6.99 11.19625 7.5 11.8125 C9 14 9 14 9 17 C6.53199953 15.84826645 4.95216435 14.95216435 3 13 C2.67 14.98 2.34 16.96 2 19 C1.67 19 1.34 19 1 19 C0.67 12.73 0.34 6.46 0 0 Z " fill="#C5C5C5" transform="translate(1816,142)"/>
<path d="M0 0 C0 2.97 0 5.94 0 9 C-5.49152542 8.38983051 -5.49152542 8.38983051 -7.875 6.5625 C-9 5 -9 5 -9 3 C-10.32 2.67 -11.64 2.34 -13 2 C-11.39658445 1.66307215 -9.79223445 1.33058907 -8.1875 1 C-7.29417969 0.814375 -6.40085937 0.62875 -5.48046875 0.4375 C-3 0 -3 0 0 0 Z " fill="#E9E9E9" transform="translate(1729,249)"/>
<path d="M0 0 C-3.90489364 2.24764435 -8.1222059 3.26718217 -12.4375 4.4375 C-13.23140137 4.65559326 -14.02530273 4.87368652 -14.84326172 5.09838867 C-21.52330719 6.91392528 -28.23500392 8.52986834 -35 10 C-34.67 9.34 -34.34 8.68 -34 8 C-33.01 8 -32.02 8 -31 8 C-31 7.34 -31 6.68 -31 6 C-27.14932582 4.98621532 -23.29397377 3.99147328 -19.4375 3 C-18.35146484 2.71382812 -17.26542969 2.42765625 -16.14648438 2.1328125 C-10.62684204 0.72354212 -5.70198744 -0.39267632 0 0 Z " fill="#131313" transform="translate(1779,246)"/>
<path d="M0 0 C0.99 0.33 1.98 0.66 3 1 C2.01 2.32 1.02 3.64 0 5 C1.11375 4.79375 2.2275 4.5875 3.375 4.375 C4.57125 4.25125 5.7675 4.1275 7 4 C7.66 4.66 8.32 5.32 9 6 C8.875 7.9375 8.875 7.9375 8 10 C5.9375 11.75 5.9375 11.75 4 13 C3.67 12.01 3.34 11.02 3 10 C3.99 9.01 4.98 8.02 6 7 C3.69 7.33 1.38 7.66 -1 8 C-1.66 6.35 -2.32 4.7 -3 3 C-2.01 2.01 -1.02 1.02 0 0 Z " fill="#F1F1F1" transform="translate(1659,204)"/>
<path d="M0 0 C1.98 0 3.96 0 6 0 C6 4 6 4 5.4375 5.9375 C4.8754122 8.58734247 5.26837341 10.40605117 6 13 C6.99 14.485 6.99 14.485 8 16 C3.75667588 14.25274889 2.63319887 12.14059758 0.75 8.109375 C-0.23720136 5.33287118 -0.29151293 2.91512932 0 0 Z " fill="#A2A2A2" transform="translate(1545,111)"/>
<path d="M0 0 C1.32 0.66 2.64 1.32 4 2 C3.67 3.32 3.34 4.64 3 6 C3.99 5.67 4.98 5.34 6 5 C5.67 6.32 5.34 7.64 5 9 C2.69 9.33 0.38 9.66 -2 10 C-2.66 7.69 -3.32 5.38 -4 3 C-2.68 2.01 -1.36 1.02 0 0 Z " fill="#F1F1F1" transform="translate(1653,215)"/>
<path d="M0 0 C0.33 0 0.66 0 1 0 C1 1.65 1 3.3 1 5 C3.97 5.495 3.97 5.495 7 6 C6.67 6.66 6.34 7.32 6 8 C2.43108703 8.8235953 -0.28069045 9.15637164 -3.875 8.375 C-6 7 -6 7 -6.8125 4.375 C-6.874375 3.59125 -6.93625 2.8075 -7 2 C-4.525 2.99 -4.525 2.99 -2 4 C-1.34 2.68 -0.68 1.36 0 0 Z " fill="#E9E9E9" transform="translate(1580,77)"/>
<path d="M0 0 C0.33 0 0.66 0 1 0 C1 1.65 1 3.3 1 5 C2.98 5 4.96 5 7 5 C6.67 5.99 6.34 6.98 6 8 C1.15507803 9.51403812 -2.2591011 8.36602172 -7 7 C-7 5.33333333 -7 3.66666667 -7 2 C-5.68 2.33 -4.36 2.66 -3 3 C-3 3.66 -3 4.32 -3 5 C-2.34 5 -1.68 5 -1 5 C-0.67 3.35 -0.34 1.7 0 0 Z " fill="#F0F0F0" transform="translate(1658,103)"/>
<path d="M0 0 C2.625 0.375 2.625 0.375 5 1 C4.67 2.32 4.34 3.64 4 5 C6.475 6.98 6.475 6.98 9 9 C7.02 9.99 7.02 9.99 5 11 C4.566875 10.525625 4.13375 10.05125 3.6875 9.5625 C1.97690387 7.76313043 1.97690387 7.76313043 -1 7 C-1.625 4.625 -1.625 4.625 -2 2 C-1.34 1.34 -0.68 0.68 0 0 Z " fill="#ECECEC" transform="translate(1664,199)"/>
<path d="M0 0 C2.64 0.66 5.28 1.32 8 2 C5.8125 4.5625 5.8125 4.5625 3 7 C0.3125 7.125 0.3125 7.125 -2 6 C-3.3125 3.4375 -3.3125 3.4375 -4 1 C-2.68 1.33 -1.36 1.66 0 2 C0 1.34 0 0.68 0 0 Z " fill="#E9E9E9" transform="translate(1626,139)"/>
<path d="M0 0 C1.66666667 0 3.33333333 0 5 0 C5.33 1.32 5.66 2.64 6 4 C7.65 4.33 9.3 4.66 11 5 C11 5.66 11 6.32 11 7 C8.125 7.625 8.125 7.625 5 8 C4.34 7.34 3.68 6.68 3 6 C2.34 6.66 1.68 7.32 1 8 C0.34 5.69 -0.32 3.38 -1 1 C-0.67 0.67 -0.34 0.34 0 0 Z " fill="#D3D3D3" transform="translate(1537,221)"/>
<path d="M0 0 C3.58588324 0.38766305 6.69987921 1.58566252 10 3 C6.17482487 5.39073445 2.40334476 5.55966552 -2 6 C-2 2 -2 2 0 0 Z " fill="#E8E8E8" transform="translate(1716,255)"/>
<path d="M0 0 C0.4125 0.556875 0.825 1.11375 1.25 1.6875 C1.8275 2.450625 2.405 3.21375 3 4 C3.5465625 4.8146875 4.093125 5.629375 4.65625 6.46875 C7.60071682 9.64877417 10.15095854 10.48410693 14.25 11.8125 C15.22453125 12.13637695 15.22453125 12.13637695 16.21875 12.46679688 C17.8077137 12.99255692 19.40326048 13.49835055 21 14 C16.2611581 15.71598352 12.44067247 14.04376658 7.86328125 12.4453125 C3.63455147 10.31075586 1.563511 7.42691778 0 3 C0 2.01 0 1.02 0 0 Z " fill="#2A2A2A" transform="translate(1539,230)"/>
<path d="M0 0 C6.75 -0.125 6.75 -0.125 9 1 C9.125 3.375 9.125 3.375 9 6 C8.34 6.66 7.68 7.32 7 8 C5.125 7.9375 5.125 7.9375 3 7 C0.75 4.4375 0.75 4.4375 -1 2 C0.32 2 1.64 2 3 2 C3.33 2.66 3.66 3.32 4 4 C4.99 4.33 5.98 4.66 7 5 C6.67 4.01 6.34 3.02 6 2 C3.03 1.505 3.03 1.505 0 1 C0 0.67 0 0.34 0 0 Z " fill="#E8E8E8" transform="translate(1714,46)"/>
<path d="M0 0 C0.66 0 1.32 0 2 0 C2.33 1.32 2.66 2.64 3 4 C1.75336669 4.50833591 0.50250613 5.00631145 -0.75 5.5 C-1.44609375 5.7784375 -2.1421875 6.056875 -2.859375 6.34375 C-5 7 -5 7 -9 7 C-8.649375 7.598125 -8.29875 8.19625 -7.9375 8.8125 C-7 11 -7 11 -8 14 C-11 9.375 -11 9.375 -11 6 C-7.37 5.01 -3.74 4.02 0 3 C0 2.01 0 1.02 0 0 Z " fill="#262626" transform="translate(1832,123)"/>
<path d="M0 0 C0.66 0.33 1.32 0.66 2 1 C1.030625 1.61875 0.06125 2.2375 -0.9375 2.875 C-4.02835362 4.65678846 -4.02835362 4.65678846 -5 7 C-2.03 7.495 -2.03 7.495 1 8 C0.67 8.99 0.34 9.98 0 11 C-0.33 10.34 -0.66 9.68 -1 9 C-4.02934491 8.34227572 -4.02934491 8.34227572 -7 8 C-7.33 6.68 -7.66 5.36 -8 4 C-6.71349294 3.30289269 -5.42059335 2.61757124 -4.125 1.9375 C-3.40570312 1.55464844 -2.68640625 1.17179688 -1.9453125 0.77734375 C-1.30335937 0.52082031 -0.66140625 0.26429688 0 0 Z " fill="#5F5F5F" transform="translate(1544,175)"/>
<path d="M0 0 C-12.46136896 4.76724969 -12.46136896 4.76724969 -17 5 C-17.66 4.34 -18.32 3.68 -19 3 C-16.586238 2.30048937 -14.16989766 1.61516081 -11.75 0.9375 C-11.06808594 0.73833984 -10.38617187 0.53917969 -9.68359375 0.33398438 C-3.41657839 -1.40009269 -3.41657839 -1.40009269 0 0 Z " fill="#2B2B2B" transform="translate(1748,254)"/>
<path d="M0 0 C0.66 0.99 1.32 1.98 2 3 C-1.69541586 3.95024979 -4.30458414 3.95024979 -8 3 C-7.67 2.01 -7.34 1.02 -7 0 C-4.27584084 -1.36207958 -2.87220643 -0.86166193 0 0 Z " fill="#E3E3E3" transform="translate(1616,151)"/>
<path d="M0 0 C0.99 0 1.98 0 3 0 C3.6875 1.6875 3.6875 1.6875 4 4 C2.19947204 8.10120257 0.05762545 10.12724979 -4 12 C-4.66 11.67 -5.32 11.34 -6 11 C-5.05125 10.278125 -4.1025 9.55625 -3.125 8.8125 C-0.32587438 6.50190102 0.98517558 4.55188548 2 1 C1.34 0.67 0.68 0.34 0 0 Z " fill="#101010" transform="translate(1820,188)"/>
<path d="M0 0 C1.32 1.32 2.64 2.64 4 4 C3.34 5.65 2.68 7.3 2 9 C1.01 9 0.02 9 -1 9 C-0.67 6.03 -0.34 3.06 0 0 Z " fill="#EDEDED" transform="translate(1818,156)"/>
<path d="M0 0 C0.66 0 1.32 0 2 0 C0.84826645 2.46800047 -0.04783565 4.04783565 -2 6 C-4.65537372 6.56520003 -7.29144713 6.73788198 -10 7 C-10 6.34 -10 5.68 -10 5 C-9.16855469 4.70996094 -9.16855469 4.70996094 -8.3203125 4.4140625 C-7.59585937 4.15367187 -6.87140625 3.89328125 -6.125 3.625 C-5.04605469 3.24214844 -5.04605469 3.24214844 -3.9453125 2.8515625 C-1.81842006 2.06122217 -1.81842006 2.06122217 0 0 Z " fill="#222222" transform="translate(1820,179)"/>
<path d="M0 0 C0.33 0.66 0.66 1.32 1 2 C-0.25 5.5625 -0.25 5.5625 -2 9 C-2.99 9.33 -3.98 9.66 -5 10 C-3.84414715 6.08788267 -2.64465038 3.1254959 0 0 Z " fill="#0F0F0F" transform="translate(1826,169)"/>
<path d="M0 0 C-0.99 1.485 -0.99 1.485 -2 3 C-2.5775 2.814375 -3.155 2.62875 -3.75 2.4375 C-6.20692525 1.95976454 -7.64397534 2.24270636 -10 3 C-10 2.01 -10 1.02 -10 0 C-6.33694766 -0.74926071 -3.57644848 -1.2380014 0 0 Z " fill="#E0E0E0" transform="translate(1744,136)"/>
<path d="M0 0 C2.31 0.33 4.62 0.66 7 1 C6.01 1.495 6.01 1.495 5 2 C5 2.66 5 3.32 5 4 C3.35 4 1.7 4 0 4 C0 2.68 0 1.36 0 0 Z " fill="#E1E1E1" transform="translate(1671,201)"/>
<path d="M0 0 C1.42944945 2.35438733 2.08661261 3.48032433 1.625 6.25 C1.41875 6.8275 1.2125 7.405 1 8 C-0.32 7.34 -1.64 6.68 -3 6 C-3 5.01 -3 4.02 -3 3 C-2.34 3 -1.68 3 -1 3 C-0.67 2.01 -0.34 1.02 0 0 Z " fill="#E6E6E6" transform="translate(1545,219)"/>
<path d="M0 0 C0.33 0 0.66 0 1 0 C1 1.98 1 3.96 1 6 C0.34 6 -0.32 6 -1 6 C-1 6.66 -1 7.32 -1 8 C-2.32 7.67 -3.64 7.34 -5 7 C-4.0409375 6.1028125 -4.0409375 6.1028125 -3.0625 5.1875 C-0.79689611 3.09189663 -0.79689611 3.09189663 0 0 Z " fill="#111111" transform="translate(1830,77)"/>
<path d="M0 0 C1.32 0.33 2.64 0.66 4 1 C4.33 2.65 4.66 4.3 5 6 C3.35 5.67 1.7 5.34 0 5 C0 3.33333333 0 1.66666667 0 0 Z " fill="#D4D4D4" transform="translate(1651,105)"/>
<path d="M0 0 C-0.33 1.32 -0.66 2.64 -1 4 C-3.31 4.33 -5.62 4.66 -8 5 C-6.45487538 1.90975077 -3.48715062 0 0 0 Z " fill="#E2E2E2" transform="translate(1659,220)"/>
</svg>
